<svg aria-hidden="true" style="position: absolute; width: 0; height: 0; overflow: hidden;" version="1.1" xmlns="http://www.w3.org/2000/svg" xmlns:xlink="http://www.w3.org/1999/xlink">
<defs>
<symbol id="icon-stopwatch" viewBox="0 0 32 32">
<path d="M16 6.038v-2.038h4v-2c0-1.105-0.895-2-2-2h-6c-1.105 0-2 0.895-2 2v2h4v2.038c-6.712 0.511-12 6.119-12 12.962 0 7.18 5.82 13 13 13s13-5.82 13-13c0-6.843-5.288-12.451-12-12.962zM22.071 26.071c-1.889 1.889-4.4 2.929-7.071 2.929s-5.182-1.040-7.071-2.929c-1.889-1.889-2.929-4.4-2.929-7.071s1.040-5.182 2.929-7.071c1.814-1.814 4.201-2.844 6.754-2.923l-0.677 9.813c-0.058 0.822 0.389 1.181 0.995 1.181s1.053-0.36 0.995-1.181l-0.677-9.813c2.552 0.079 4.94 1.11 6.754 2.923 1.889 1.889 2.929 4.4 2.929 7.071s-1.040 5.182-2.929 7.071z"></path>
</symbol>
<symbol id="icon-list" viewBox="0 0 32 32">
<path d="M0 0h8v8h-8zM12 2h20v4h-20zM0 12h8v8h-8zM12 14h20v4h-20zM0 24h8v8h-8zM12 26h20v4h-20z"></path>
</symbol>
<symbol id="icon-sort-amount-desc" viewBox="0 0 32 32">
<path d="M10 24v-24h-4v24h-5l7 7 7-7h-5z"></path>
<path d="M14 0h18v4h-18v-4z"></path>
<path d="M14 6h14v4h-14v-4z"></path>
<path d="M14 12h10v4h-10v-4z"></path>
<path d="M14 18h6v4h-6v-4z"></path>
</symbol>
</defs>
</svg>
